<?xml version="1.0" encoding="UTF-8"?>
<svg width="24px" height="24px" viewBox="0 0 24 24" version="1.1" xmlns="http://www.w3.org/2000/svg">
    <g stroke="none" stroke-width="1" fill="none" fill-rule="evenodd">
        <rect x="0" y="0" width="24" height="24"/>
        <path d="M12,2 C6.477,2 2,5.954 2,10.783 C2,14.892 5.179,18.397 9.514,19.555 C9.883,19.647 10.366,19.834 10.5,20.169 C10.62,20.473 10.574,20.973 10.532,21.286 L10.494,21.574 C10.447,21.935 10.345,22.684 11.146,22.223 C11.951,21.759 16.334,18.932 18.628,16.428 C20.178,14.768 21,12.827 21,10.783 C21,5.954 16.523,2 12,2" fill="#00B900" fill-rule="nonzero"/>
        <path d="M16.173,11.541 L16.173,11.541 C16.438,11.541 16.652,11.327 16.652,11.063 C16.652,10.798 16.438,10.584 16.173,10.584 L14.193,10.584 L14.193,9.533 L16.173,9.533 C16.438,9.533 16.652,9.319 16.652,9.055 C16.652,8.79 16.438,8.576 16.173,8.576 L13.714,8.576 C13.449,8.576 13.235,8.79 13.235,9.055 L13.235,13.071 C13.235,13.336 13.449,13.55 13.714,13.55 C13.979,13.55 14.193,13.336 14.193,13.071 L14.193,11.541 L16.173,11.541 Z M11.414,13.071 L11.414,9.055 C11.414,8.79 11.2,8.576 10.935,8.576 C10.67,8.576 10.456,8.79 10.456,9.055 L10.456,13.071 C10.456,13.336 10.67,13.55 10.935,13.55 C11.2,13.55 11.414,13.336 11.414,13.071 L11.414,13.071 Z M8.675,13.071 L8.675,9.055 C8.675,8.79 8.461,8.576 8.196,8.576 C7.931,8.576 7.717,8.79 7.717,9.055 L7.717,13.071 C7.717,13.336 7.931,13.55 8.196,13.55 C8.461,13.55 8.675,13.336 8.675,13.071 L8.675,13.071 Z" fill="#FFFFFF" fill-rule="nonzero"/>
    </g>
</svg>
